<mxfile host="app.diagrams.net" modified="2023-06-22T12:14:09.563Z" agent="Mozilla/5.0 (Windows NT 10.0; Win64; x64) AppleWebKit/537.36 (KHTML, like Gecko) Chrome/113.0.0.0 Safari/537.36" etag="y5ABnZXlfTKiCa3m5zSU" version="21.5.0" type="github">
  <diagram name="Page-1" id="NLrtFPsRYLi89kOF9EQY">
    <mxGraphModel dx="548" dy="311" grid="1" gridSize="10" guides="1" tooltips="1" connect="1" arrows="1" fold="1" page="1" pageScale="1" pageWidth="850" pageHeight="1100" math="0" shadow="0">
      <root>
        <mxCell id="0" />
        <mxCell id="1" parent="0" />
        <mxCell id="yeGPA09dJD4qr3ePd7-E-1" value="&lt;span style=&quot;font-size: 16px;&quot;&gt;&lt;b&gt;h&lt;/b&gt;&lt;sub style=&quot;font-size: 12px;&quot;&gt;t&lt;/sub&gt;&lt;/span&gt;" style="ellipse;whiteSpace=wrap;html=1;aspect=fixed;" parent="1" vertex="1">
          <mxGeometry x="340" y="150" width="80" height="80" as="geometry" />
        </mxCell>
        <mxCell id="yeGPA09dJD4qr3ePd7-E-3" value="" style="endArrow=classic;html=1;rounded=0;entryX=0;entryY=0.5;entryDx=0;entryDy=0;" parent="1" target="yeGPA09dJD4qr3ePd7-E-1" edge="1">
          <mxGeometry width="50" height="50" relative="1" as="geometry">
            <mxPoint x="230" y="190" as="sourcePoint" />
            <mxPoint x="430" y="110" as="targetPoint" />
            <Array as="points">
              <mxPoint x="270" y="190" />
              <mxPoint x="250" y="190" />
            </Array>
          </mxGeometry>
        </mxCell>
        <mxCell id="yeGPA09dJD4qr3ePd7-E-4" value="&lt;b&gt;&lt;font style=&quot;font-size: 16px;&quot;&gt;X&lt;/font&gt;&lt;/b&gt;&lt;sub style=&quot;font-size: 12px;&quot;&gt;t&lt;/sub&gt;" style="edgeLabel;html=1;align=center;verticalAlign=middle;resizable=0;points=[];" parent="yeGPA09dJD4qr3ePd7-E-3" vertex="1" connectable="0">
          <mxGeometry x="0.1516" y="16" relative="1" as="geometry">
            <mxPoint x="-61" y="16" as="offset" />
          </mxGeometry>
        </mxCell>
        <mxCell id="yeGPA09dJD4qr3ePd7-E-5" value="&lt;b style=&quot;border-color: var(--border-color); color: rgb(0, 0, 0); font-family: Helvetica; font-size: 16px; font-style: normal; font-variant-ligatures: normal; font-variant-caps: normal; letter-spacing: normal; orphans: 2; text-align: center; text-indent: 0px; text-transform: none; widows: 2; word-spacing: 0px; -webkit-text-stroke-width: 0px; background-color: rgb(251, 251, 251); text-decoration-thickness: initial; text-decoration-style: initial; text-decoration-color: initial;&quot;&gt;h&lt;/b&gt;&lt;sub style=&quot;border-color: var(--border-color); color: rgb(0, 0, 0); font-family: Helvetica; font-style: normal; font-variant-ligatures: normal; font-variant-caps: normal; font-weight: 400; letter-spacing: normal; orphans: 2; text-align: center; text-indent: 0px; text-transform: none; widows: 2; word-spacing: 0px; -webkit-text-stroke-width: 0px; background-color: rgb(251, 251, 251); text-decoration-thickness: initial; text-decoration-style: initial; text-decoration-color: initial;&quot;&gt;&lt;font style=&quot;font-size: 12px;&quot;&gt;t-1&lt;/font&gt;&lt;/sub&gt;" style="text;whiteSpace=wrap;html=1;" parent="1" vertex="1">
          <mxGeometry x="417" y="145" width="30" height="30" as="geometry" />
        </mxCell>
        <mxCell id="yeGPA09dJD4qr3ePd7-E-6" value="" style="endArrow=classic;html=1;rounded=0;exitX=1;exitY=0.5;exitDx=0;exitDy=0;" parent="1" source="yeGPA09dJD4qr3ePd7-E-1" edge="1">
          <mxGeometry width="50" height="50" relative="1" as="geometry">
            <mxPoint x="520" y="220" as="sourcePoint" />
            <mxPoint x="520" y="190" as="targetPoint" />
            <Array as="points" />
          </mxGeometry>
        </mxCell>
        <mxCell id="yeGPA09dJD4qr3ePd7-E-9" value="&lt;span style=&quot;vertical-align: sub;&quot;&gt;&lt;b style=&quot;&quot;&gt;&lt;span style=&quot;font-size: 16px;&quot;&gt;Y&lt;/span&gt;&lt;span style=&quot;font-size: 12.5px;&quot;&gt;t&lt;/span&gt;&lt;/b&gt;&lt;/span&gt;" style="edgeLabel;html=1;align=center;verticalAlign=middle;resizable=0;points=[];" parent="1" vertex="1" connectable="0">
          <mxGeometry x="320.00094550772627" y="199.99967218341914" as="geometry">
            <mxPoint x="214" y="-10" as="offset" />
          </mxGeometry>
        </mxCell>
        <mxCell id="yeGPA09dJD4qr3ePd7-E-10" value="" style="curved=1;endArrow=classic;html=1;rounded=0;exitX=1;exitY=0;exitDx=0;exitDy=0;entryX=0;entryY=0;entryDx=0;entryDy=0;" parent="1" source="yeGPA09dJD4qr3ePd7-E-1" target="yeGPA09dJD4qr3ePd7-E-1" edge="1">
          <mxGeometry width="50" height="50" relative="1" as="geometry">
            <mxPoint x="220" y="160" as="sourcePoint" />
            <mxPoint x="270" y="110" as="targetPoint" />
            <Array as="points">
              <mxPoint x="440" y="130" />
              <mxPoint x="370" y="110" />
              <mxPoint x="330" y="130" />
            </Array>
          </mxGeometry>
        </mxCell>
        <mxCell id="yeGPA09dJD4qr3ePd7-E-11" value="&lt;sub style=&quot;&quot;&gt;&lt;b style=&quot;&quot;&gt;&lt;i&gt;&lt;span style=&quot;font-size: 16px;&quot;&gt;W&lt;/span&gt;&lt;span style=&quot;font-size: 12px;&quot;&gt;x&lt;/span&gt;&lt;/i&gt;&lt;/b&gt;&lt;/sub&gt;" style="edgeLabel;html=1;align=center;verticalAlign=middle;resizable=0;points=[];" parent="1" vertex="1" connectable="0">
          <mxGeometry x="223.20689655172407" y="197.99999999999994" as="geometry">
            <mxPoint x="64" y="-20" as="offset" />
          </mxGeometry>
        </mxCell>
        <mxCell id="yeGPA09dJD4qr3ePd7-E-12" value="&lt;sub style=&quot;&quot;&gt;&lt;b style=&quot;&quot;&gt;&lt;i&gt;&lt;span style=&quot;font-size: 16px;&quot;&gt;W&lt;/span&gt;&lt;span style=&quot;font-size: 12px;&quot;&gt;o&lt;/span&gt;&lt;/i&gt;&lt;/b&gt;&lt;/sub&gt;" style="edgeLabel;html=1;align=center;verticalAlign=middle;resizable=0;points=[];" parent="1" vertex="1" connectable="0">
          <mxGeometry x="406.99689655172403" y="197.99999999999994" as="geometry">
            <mxPoint x="64" y="-20" as="offset" />
          </mxGeometry>
        </mxCell>
        <mxCell id="yeGPA09dJD4qr3ePd7-E-13" value="&lt;sub style=&quot;&quot;&gt;&lt;b style=&quot;&quot;&gt;&lt;i&gt;&lt;span style=&quot;font-size: 16px;&quot;&gt;W&lt;/span&gt;&lt;span style=&quot;font-size: 12px;&quot;&gt;h&lt;/span&gt;&lt;/i&gt;&lt;/b&gt;&lt;/sub&gt;" style="edgeLabel;html=1;align=center;verticalAlign=middle;resizable=0;points=[];" parent="1" vertex="1" connectable="0">
          <mxGeometry x="311.99689655172403" y="124.99999999999994" as="geometry">
            <mxPoint x="64" y="-20" as="offset" />
          </mxGeometry>
        </mxCell>
      </root>
    </mxGraphModel>
  </diagram>
</mxfile>
